<svg xmlns="http://www.w3.org/2000/svg" height="512" viewBox="0 0 520 520" width="512"><g id="_x38_39_x2C__Chat_x2C__Dialogue_x2C__Court_Hammer_x2C__Communication"><g><g><path d="m252.929 142.783c-3.899 3.899-3.899 10.243 0 14.142l56.568 56.568c3.91 3.909 10.232 3.909 14.144 0 3.905-3.906 3.908-10.234 0-14.141l-56.569-56.569c-3.911-3.908-10.234-3.909-14.143 0z"></path><path d="m290.711 105.71h79.998v59.999h-79.998z" transform="matrix(.707 -.707 .707 .707 .902 273.596)"></path><path d="m135 120c16.542 0 30-13.458 30-30s-13.458-30-30-30-30 13.458-30 30 13.458 30 30 30z"></path><path d="m341.316 75.606c4.264 4.264 46.285 46.285 53.033 53.034 1.889 1.889 4.4 2.929 7.07 2.929 5.526 0 10-4.474 10-10.001 0-2.671-1.04-5.182-2.929-7.071l-56.567-56.568c-3.911-3.909-10.233-3.908-14.144 0-3.898 3.899-3.898 10.243.001 14.142.234.233 3.759 3.758 3.536 3.535z"></path><path d="m360 405c-11.028 0-20 8.972-20 20s8.972 20 20 20 20-8.972 20-20-8.972-20-20-20z"></path><path d="m441.463 246.465c3.899-3.899 3.899-10.244.001-14.142l-75.398-75.398-14.142 14.142 75.397 75.398c3.908 3.906 10.235 3.909 14.142 0z"></path><path d="m416.21 315.385c34.185-25.783 53.79-65.092 53.79-107.845 0-51.8-30.125-98.794-75.514-121.189l21.075 21.075c7.815 7.814 7.818 20.467 0 28.284-7.813 7.817-20.467 7.818-28.283 0h-.001l-14.143 14.143 75.399 75.399c7.798 7.797 7.798 20.485.001 28.284-7.814 7.815-20.467 7.818-28.284.001l-75.399-75.4-14.143 14.143c.177.265 5.859 5.25 5.859 14.144 0 11.055-8.945 20-20 20-5.343 0-10.365-2.081-14.143-5.859l-56.568-56.567c-7.798-7.798-7.798-20.486 0-28.284 7.817-7.816 20.465-7.817 28.283 0l56.569-56.569c-1.87-1.87-3.278-4.025-4.252-6.323-71.214 4.404-126.456 62.862-126.456 134.718 0 28.8 9.071 55.519 24.497 77.46h20.503v-11.5c0-10.201 8.299-18.5 18.5-18.5h93c10.201 0 18.5 8.299 18.5 18.5v11.5h10c2.762 0 5 2.238 5 5s-2.238 5-5 5c-23.648 0-128.917 0-152.75 0 34.858 40.892 88.913 56.184 138.146 42.842 1.139-.309 2.352-.203 3.422.295l45.146 21.068-4.708-39.232c-.212-1.768.532-3.516 1.954-4.588z"></path><path d="m356.5 265h-93c-4.687 0-8.5 3.813-8.5 8.5v11.5h110v-11.5c0-4.687-3.813-8.5-8.5-8.5z"></path><path d="m194.861 244.798c-9.991-3.171-20.395-4.798-30.974-4.798-56.427 0-102.333 45.906-102.333 102.333 0 32.408 14.862 62.205 40.775 81.75 1.422 1.072 2.166 2.82 1.954 4.588l-3.36 27.994 32.71-15.265c1.069-.498 2.283-.603 3.422-.295 8.719 2.363 17.747 3.562 26.831 3.562 58.8 0 106.305-49.92 102.043-109.659-35.011-19.048-60.846-51.795-71.068-90.21zm-2.701 33.251c-.898 2.611-3.742 4.001-6.355 3.101-7.038-2.422-14.412-3.649-21.918-3.649-37.127 0-67.333 30.205-67.333 67.333 0 21.324 9.779 40.931 26.83 53.791 2.205 1.663 2.644 4.799.981 7.003-1.667 2.212-4.805 2.639-7.002.981-19.579-14.769-30.808-37.284-30.808-61.775 0-42.642 34.691-77.333 77.333-77.333 8.616 0 17.084 1.411 25.172 4.194 2.61.898 3.999 3.743 3.1 6.354z"></path><circle cx="222.5" cy="47.5" r="7.5"></circle><circle cx="47.5" cy="137.5" r="7.5"></circle><circle cx="127.5" cy="187.5" r="7.5"></circle><circle cx="452.5" cy="67.5" r="7.5"></circle><circle cx="457.5" cy="372.5" r="7.5"></circle><circle cx="277.5" cy="437.5" r="7.5"></circle></g></g></g></svg>